<?xml version="1.0" encoding="UTF-8" standalone="no"?>
<!-- Created with Inkscape (http://www.inkscape.org/) -->

<svg
   width="200mm"
   height="200mm"
   viewBox="0 0 200 200"
   version="1.1"
   id="svg1"
   sodipodi:docname="vector5.svg"
   xml:space="preserve"
   inkscape:version="1.3 (0e150ed6c4, 2023-07-21)"
   xmlns:inkscape="http://www.inkscape.org/namespaces/inkscape"
   xmlns:sodipodi="http://sodipodi.sourceforge.net/DTD/sodipodi-0.dtd"
   xmlns="http://www.w3.org/2000/svg"
   xmlns:svg="http://www.w3.org/2000/svg"><sodipodi:namedview
     id="namedview1"
     pagecolor="#ffffff"
     bordercolor="#000000"
     borderopacity="0.25"
     inkscape:showpageshadow="2"
     inkscape:pageopacity="0.0"
     inkscape:pagecheckerboard="true"
     inkscape:deskcolor="#d1d1d1"
     inkscape:document-units="mm"
     inkscape:zoom="0.5"
     inkscape:cx="-121"
     inkscape:cy="391"
     inkscape:window-width="1920"
     inkscape:window-height="991"
     inkscape:window-x="-9"
     inkscape:window-y="-9"
     inkscape:window-maximized="1"
     inkscape:current-layer="layer1" /><defs
     id="defs1"><pattern
       id="EMFhbasepattern"
       patternUnits="userSpaceOnUse"
       width="6"
       height="6"
       x="0"
       y="0" /><pattern
       id="EMFhbasepattern-3"
       patternUnits="userSpaceOnUse"
       width="6"
       height="6"
       x="0"
       y="0" /><pattern
       id="EMFhbasepattern-0"
       patternUnits="userSpaceOnUse"
       width="6"
       height="6"
       x="0"
       y="0" /><pattern
       id="EMFhbasepattern-2"
       patternUnits="userSpaceOnUse"
       width="6"
       height="6"
       x="0"
       y="0" /><pattern
       id="EMFhbasepattern-7"
       patternUnits="userSpaceOnUse"
       width="6"
       height="6"
       x="0"
       y="0" /><pattern
       id="EMFhbasepattern-70"
       patternUnits="userSpaceOnUse"
       width="6"
       height="6"
       x="0"
       y="0" /></defs><g
     inkscape:label="Layer 1"
     inkscape:groupmode="layer"
     id="layer1"><path
       style="fill:#ffffff;stroke-width:1.01633"
       d="m 53.267942,172.61488 c 0.223154,-0.92286 1.282453,-2.85224 2.353998,-4.28746 2.179877,-2.91972 3.468689,-5.98901 4.916325,-11.7083 1.370301,-5.41374 4.430721,-11.16663 8.248958,-15.50619 1.786813,-2.03075 3.81942,-5.21254 4.516905,-7.07054 0.697494,-1.85801 1.846967,-4.21721 2.55439,-5.24273 2.582563,-3.74355 5.783869,-10.91192 6.609578,-14.80014 1.0315,-4.85724 2.325997,-6.81349 5.494887,-8.30392 4.496478,-2.11484 3.809116,-4.93136 -1.449948,-5.941527 C 80.125233,98.527217 70.957948,95.485812 65.028109,92.626082 62.156812,91.24137 57.172073,89.398536 53.950913,88.530914 50.415306,87.578584 47.311878,86.223974 46.120101,85.11285 45.034329,84.100558 42.696495,82.567643 40.924914,81.706383 39.153339,80.845119 36.804095,79.387756 35.704376,78.467797 33.162308,76.341262 27.517512,73.61119 25.662681,73.61119 c -0.782557,0 -2.313638,-0.608676 -3.402421,-1.352612 -1.088783,-0.743937 -3.489835,-1.811382 -5.33567,-2.372101 -6.59642,-2.003819 -15.6616087,-6.808383 -15.6616087,-8.300671 0,-2.056984 7.7811743,-1.987877 10.4410667,0.09271 1.025472,0.802125 2.431993,1.46588 3.125607,1.475 2.213743,0.0291 2.299077,1.507245 0.08801,1.524743 -2.238875,0.01773 0.250137,2.9081 2.540355,2.95 0.498489,0.009 2.49393,1.023401 4.434311,2.253954 1.940382,1.230558 3.94319,2.23738 4.450673,2.23738 0.507488,0 5.727584,2.292758 11.600201,5.095025 5.87262,2.802264 12.187719,5.52206 14.033548,6.043994 1.845835,0.521929 4.162233,1.265686 5.147544,1.652793 2.06021,0.809403 3.65502,-0.207242 2.155525,-1.374084 -1.336258,-1.039826 -11.827002,-6.365416 -18.117043,-9.197041 -2.871295,-1.2926 -5.803294,-2.656648 -6.515548,-3.031223 -0.712261,-0.374573 -1.625229,-0.68105 -2.028824,-0.68105 -0.403601,0 -2.505692,-0.797345 -4.671313,-1.77187 -2.165627,-0.974532 -5.236186,-2.188425 -6.823454,-2.697555 -1.70368,-0.546466 -2.533525,-1.143499 -2.025661,-1.457371 1.355372,-0.837661 0.286229,-2.438531 -3.509765,-5.255324 -1.93123,-1.433014 -3.6791,-2.783185 -3.884203,-3.000368 -0.205086,-0.217168 -1.295804,-0.982154 -2.4238147,-1.699964 -1.8792701,-1.19587 -2.8482091,-3.508086 -1.4700799,-3.508086 0.319471,0 3.5916276,2.538053 7.2714686,5.640112 8.261956,6.964743 12.192797,9.605561 16.65438,11.188723 4.168586,1.479192 6.747904,2.511151 8.484439,3.394535 0.712253,0.362325 1.980353,0.65878 2.817979,0.65878 0.837637,0 3.535538,1.015938 5.995337,2.257639 2.459804,1.241706 6.549194,2.7897 9.087527,3.439994 2.538343,0.650291 5.797026,1.815791 7.241532,2.589997 2.910112,1.55973 4.512934,1.794793 4.512934,0.661858 0,-1.543102 2.724062,-0.662538 4.614274,1.491582 1.880972,2.1436 4.258581,3.177649 3.138202,1.364842 -0.379544,-0.614114 -0.116472,-0.700953 0.888225,-0.293197 15.034677,6.101743 17.808309,6.010308 21.195067,-0.69875 2.633619,-5.217037 7.025819,-11.858391 11.097579,-16.780293 1.18761,-1.435646 3.91497,-5.966328 6.06069,-10.068178 2.14566,-4.101852 4.75223,-8.464728 5.79245,-9.695284 1.04009,-1.230561 2.67412,-4.001719 3.63114,-6.158139 3.36585,-7.584176 6.565,-11.356277 6.59222,-7.772805 0.005,0.688876 0.42902,1.1686 0.94174,1.06605 0.51275,-0.102544 0.93223,0.325266 0.93223,0.950699 0,0.625426 0.83905,1.456137 1.86451,1.846014 2.35739,0.896285 2.42755,3.16633 0.18644,6.032848 -4.11337,5.261253 -4.85919,6.383319 -5.40846,8.137182 -0.32117,1.025468 -1.87854,4.516981 -3.46084,7.758931 -1.58228,3.241955 -2.87914,6.262403 -2.88184,6.712123 -0.009,1.463332 -9.87739,13.951445 -13.2314,16.743546 -5.84427,4.865175 -7.96587,11.295487 -3.72675,11.295487 0.76083,0 2.8345,0.661091 4.60818,1.469096 1.77368,0.808001 5.86647,2.189119 9.09505,3.06915 6.60438,1.800205 8.28823,2.556939 9.94112,4.467439 2.86543,3.31225 29.8597,13.95886 40.44767,15.9527 10.77806,2.02964 26.68263,8.37592 26.69803,10.65308 0.009,1.408 -2.66574,1.12126 -6.15691,-0.65977 -3.35963,-1.71393 -8.3572,-3.30712 -20.68523,-6.59409 -11.24296,-2.99773 -21.33921,-6.65087 -30.13264,-10.90306 -2.90336,-1.40394 -3.36091,-1.32466 -2.88389,0.49942 0.26807,1.02503 2.06783,2.28949 5.33719,3.74972 2.71299,1.21165 6.27517,2.92643 7.91586,3.81053 6.38958,3.44275 10.55763,5.49133 13.30491,6.53926 1.57507,0.60081 3.52764,2.02463 4.33908,3.16421 0.81138,1.13947 2.02443,2.07177 2.6957,2.07177 2.07151,0 9.86486,3.93318 9.86486,4.97862 0,1.25312 -0.69948,1.24208 -3.82428,-0.0607 -1.38323,-0.57667 -4.51432,-1.41716 -6.95791,-1.86778 -2.44371,-0.45058 -5.70863,-1.65679 -7.25547,-2.68047 -1.54685,-1.02363 -3.23922,-1.86901 -3.76074,-1.87861 -0.52149,-0.009 -2.62627,-1.00903 -4.67715,-2.22109 -2.05094,-1.21208 -5.07138,-2.78862 -6.71217,-3.50339 -1.64069,-0.71485 -6.84256,-3.25939 -11.55975,-5.65446 -8.16398,-4.1453 -20.44368,-9.48574 -21.81131,-9.48574 -0.35152,0 -4.04255,-1.34244 -8.20212,-2.98314 -9.978189,-3.93582 -9.740352,-3.9763 -12.841622,2.18186 -1.430595,2.84073 -2.962911,5.38864 -3.40516,5.66196 -0.442242,0.27335 -1.62655,2.22808 -2.631788,4.34381 -1.810919,3.81153 -3.212769,5.99123 -7.949413,12.36043 -1.346935,1.81115 -3.959205,6.34185 -5.805035,10.0682 -2.216857,4.47529 -3.984636,7.08102 -5.207837,7.67626 -2.389563,1.16295 -3.741656,3.04481 -3.741656,5.20771 0,0.96914 -0.45117,1.7219 -1.032077,1.7219 -0.569341,0 -1.766356,1.92261 -2.669858,4.2883 -0.900791,2.35857 -2.003144,4.95951 -2.449678,5.77989 -0.446529,0.82036 -1.800738,3.42129 -3.009333,5.77985 -2.196766,4.28695 -4.51725,5.91614 -3.71791,2.61029 z M 73.10129,89.627051 c 0.07178,-0.399929 -0.876297,-0.818649 -2.106855,-0.930486 -2.139669,-0.194445 -2.173555,-0.153305 -0.775952,0.942299 1.540168,1.207352 2.66481,1.202739 2.882807,-0.01183 z M 117.6064,64.661703 c 0.63709,-1.190509 0.56717,-1.49159 -0.34667,-1.49159 -0.64771,0 -1.14491,0.647736 -1.14491,1.49159 0,0.820362 0.15601,1.491579 0.34662,1.491579 0.19065,0 0.70588,-0.671217 1.14496,-1.491579 z M 12.076949,63.915906 c 0.253508,-0.410187 -0.2499,-0.745793 -1.118682,-0.745793 -0.868788,0 -1.3721956,0.335606 -1.1186828,0.745793 0.2535038,0.410185 0.7569038,0.745797 1.1186828,0.745797 0.361762,0 0.865173,-0.335612 1.118682,-0.745797 z M 121.95788,58.973071 c 1.03888,-1.603175 1.46898,-2.95921 1.06631,-3.361888 -0.40265,-0.402679 -1.1045,0.158423 -1.73998,1.391091 -0.5858,1.136288 -1.48517,2.334372 -1.99862,2.662396 -1.20431,0.769462 -1.20506,2.016552 -9.5e-4,2.00463 0.5128,-0.005 1.71584,-1.218375 2.6735,-2.696229 z m 5.85323,-16.07915 c -0.23804,-0.594935 -0.41484,-0.418221 -0.45053,0.450589 -0.0321,0.786184 0.14387,1.226668 0.39165,0.978845 0.2478,-0.247815 0.27431,-0.89106 0.0587,-1.429434 z m 5.47533,-3.264765 c 1.08733,-2.85993 0.93086,-3.468917 -0.67105,-2.611579 -1.41464,0.757088 -2.51759,3.343178 -1.75228,4.108523 0.87235,0.872343 1.7221,0.347447 2.42333,-1.496944 z M 75.397961,82.445444 c -0.329694,-0.533461 -0.204577,-0.658575 0.328886,-0.328879 0.859711,0.531337 1.154236,1.189905 0.532136,1.189905 -0.180878,0 -0.568338,-0.387456 -0.861022,-0.861026 z"
       id="path48" /></g></svg>
