<?xml version="1.0" encoding="UTF-8" standalone="no"?>
<!-- Created with Inkscape (http://www.inkscape.org/) -->

<svg
   width="200mm"
   height="200mm"
   viewBox="0 0 200 200"
   version="1.1"
   id="svg1"
   sodipodi:docname="vector6.svg"
   xml:space="preserve"
   inkscape:version="1.3 (0e150ed6c4, 2023-07-21)"
   xmlns:inkscape="http://www.inkscape.org/namespaces/inkscape"
   xmlns:sodipodi="http://sodipodi.sourceforge.net/DTD/sodipodi-0.dtd"
   xmlns="http://www.w3.org/2000/svg"
   xmlns:svg="http://www.w3.org/2000/svg"><sodipodi:namedview
     id="namedview1"
     pagecolor="#ffffff"
     bordercolor="#000000"
     borderopacity="0.25"
     inkscape:showpageshadow="2"
     inkscape:pageopacity="0.0"
     inkscape:pagecheckerboard="true"
     inkscape:deskcolor="#d1d1d1"
     inkscape:document-units="mm"
     inkscape:zoom="0.5"
     inkscape:cx="-121"
     inkscape:cy="391"
     inkscape:window-width="1920"
     inkscape:window-height="991"
     inkscape:window-x="-9"
     inkscape:window-y="-9"
     inkscape:window-maximized="1"
     inkscape:current-layer="layer1" /><defs
     id="defs1"><pattern
       id="EMFhbasepattern"
       patternUnits="userSpaceOnUse"
       width="6"
       height="6"
       x="0"
       y="0" /><pattern
       id="EMFhbasepattern-3"
       patternUnits="userSpaceOnUse"
       width="6"
       height="6"
       x="0"
       y="0" /><pattern
       id="EMFhbasepattern-0"
       patternUnits="userSpaceOnUse"
       width="6"
       height="6"
       x="0"
       y="0" /><pattern
       id="EMFhbasepattern-2"
       patternUnits="userSpaceOnUse"
       width="6"
       height="6"
       x="0"
       y="0" /><pattern
       id="EMFhbasepattern-7"
       patternUnits="userSpaceOnUse"
       width="6"
       height="6"
       x="0"
       y="0" /><pattern
       id="EMFhbasepattern-70"
       patternUnits="userSpaceOnUse"
       width="6"
       height="6"
       x="0"
       y="0" /><pattern
       id="EMFhbasepattern-6"
       patternUnits="userSpaceOnUse"
       width="6"
       height="6"
       x="0"
       y="0" /></defs><g
     inkscape:label="Layer 1"
     inkscape:groupmode="layer"
     id="layer1"><path
       style="fill:#ffffff;stroke-width:1.69295"
       d="m 89.803997,176.61998 c -0.929209,-0.32149 -7.391445,-1.50345 -14.36053,-2.62654 -11.654298,-1.87815 -27.031575,-7.57481 -27.031575,-10.01411 0,-0.56377 -3.041052,-2.90451 -6.757894,-5.20165 -3.716841,-2.29715 -6.757893,-4.69699 -6.757893,-5.333 0,-0.63602 -2.204287,-1.64056 -4.898415,-2.23229 -6.075585,-1.33443 -18.754216,-13.48796 -18.754216,-17.97751 0,-1.82574 -1.4432633,-4.86869 -3.2072542,-6.76211 -3.4244611,-3.67575 -5.895457,-15.44435 -4.6197974,-22.0027 2.9975422,-15.41083 5.1866205,-23.408173 6.4074153,-23.408173 0.7807993,0 1.4196363,-1.384774 1.4196363,-3.077272 0,-9.115274 20.094046,-35.35563 30.410524,-39.712414 3.252238,-1.373461 8.193947,-4.47167 10.981579,-6.884907 14.8965,-12.895815 85.874443,-9.307824 101.451413,5.12845 2.37312,2.199329 5.29358,3.99878 6.48988,3.99878 5.34993,0 30.87591,23.440985 35.74412,32.824483 1.60823,3.099863 1.78991,9.559311 0.74767,26.583192 -0.75723,12.368571 -1.01833,23.068281 -0.58024,23.777151 0.43811,0.70887 -0.008,1.28885 -0.99262,1.28885 -0.98405,0 -1.78917,2.61605 -1.78917,5.81345 0,3.1974 -0.76027,6.28331 -1.68947,6.8576 -0.92924,0.5743 -1.68949,2.06365 -1.68949,3.30972 0,1.24605 -2.47087,4.88726 -5.49079,8.09162 -3.01994,3.20435 -7.89869,8.5155 -10.84168,11.80256 -11.59251,12.94781 -63.97491,22.75147 -84.191203,15.75682 z m 57.822143,-9.8173 c 9.00079,-2.3668 10.43314,-3.36991 23.5208,-16.47237 14.71508,-14.73165 18.87981,-27.14631 19.39502,-57.814377 0.19622,-11.681485 -0.33382,-17.407037 -1.65216,-17.846484 -1.06759,-0.355864 -1.94106,-1.613736 -1.94106,-2.795272 0,-7.260445 -28.1683,-27.980697 -38.03856,-27.980697 -3.23826,0 -5.88777,-0.760263 -5.88777,-1.689474 0,-0.92921 -1.47565,-1.689472 -3.27923,-1.689472 -1.80359,0 -3.69948,-0.679954 -4.2131,-1.511011 -0.51362,-0.831054 -3.7896,-1.929667 -7.27997,-2.441362 -3.49038,-0.511693 -11.53686,-1.824725 -17.88111,-2.917848 -11.457692,-1.974181 -35.075874,0.876302 -43.187371,5.21229 -1.495855,0.799606 -4.757299,1.881027 -7.247651,2.403152 -2.490351,0.522128 -5.667164,2.088578 -7.059584,3.480997 -1.392422,1.392421 -3.610046,2.531674 -4.928055,2.531674 -1.31801,0 -4.149562,1.520527 -6.292341,3.378947 -2.142777,1.858422 -4.349828,3.395663 -4.904558,3.41609 -0.554729,0.02044 -3.289389,3.439958 -6.077019,7.598952 -2.787633,4.158998 -5.638618,7.563468 -6.335526,7.56549 -0.696907,0.002 -1.267104,0.74316 -1.267104,1.646967 0,0.903811 -1.806403,5.655456 -4.014225,10.559212 -7.668582,17.032558 -10.9041399,40.171176 -5.617277,40.171176 1.20715,0 3.138181,2.60884 4.291185,5.79742 1.767697,4.88848 6.333592,9.80375 16.428308,17.68542 0.987737,0.7712 3.648658,2.3606 5.913156,3.53201 2.2645,1.17137 8.224622,5.25745 13.244716,9.08016 13.029334,9.9216 70.203816,15.43739 94.310486,9.09841 z M 21.380316,71.769793 c 0,-0.464606 -0.380133,-0.844738 -0.844737,-0.844738 -0.464605,0 -0.844735,0.380132 -0.844735,0.844738 0,0.464605 0.38013,0.844738 0.844735,0.844738 0.464604,0 0.844737,-0.380133 0.844737,-0.844738 z m -3.378947,-3.378947 c 0,-0.464606 -0.380132,-0.844738 -0.844738,-0.844738 -0.464605,0 -0.844736,0.380132 -0.844736,0.844738 0,0.464605 0.380131,0.844737 0.844736,0.844737 0.464606,0 0.844738,-0.380132 0.844738,-0.844737 z M 185.25926,63.322427 c 0,-0.464608 -0.38015,-0.844739 -0.84475,-0.844739 -0.46462,0 -0.84473,0.380131 -0.84473,0.844739 0,0.464604 0.38011,0.844736 0.84473,0.844736 0.4646,0 0.84475,-0.380132 0.84475,-0.844736 z M 170.05399,49.906344 c 0,-0.409765 -0.87774,-1.287496 -1.9505,-1.950511 -1.20849,-0.746882 -1.49194,-0.46345 -0.74503,0.745029 1.20364,1.947545 2.69553,2.614739 2.69553,1.205482 z m -6.7579,-5.168128 c 0,-0.464606 -0.38013,-0.844736 -0.84474,-0.844736 -0.46459,0 -0.84473,0.38013 -0.84473,0.844736 0,0.464605 0.38014,0.844737 0.84473,0.844737 0.46461,0 0.84474,-0.380132 0.84474,-0.844737 z m -18.58421,-8.424694 c 0,-1.401001 -12.04047,-5.934401 -15.83395,-5.961702 -2.94032,-0.02115 -3.13349,-0.324112 -1.06079,-1.663602 2.86711,-1.852857 1.60997,-2.201227 -2.39603,-0.663981 -4.72345,1.812565 -2.86939,3.629728 4.89087,4.79345 4.15979,0.623798 8.00598,1.850514 8.54706,2.726039 1.00382,1.624204 5.85284,2.261973 5.85284,0.769796 z"
       id="path48" /></g></svg>
