<?xml version="1.0" encoding="UTF-8" standalone="no"?>
<!-- Created with Inkscape (http://www.inkscape.org/) -->

<svg
   width="200mm"
   height="200mm"
   viewBox="0 0 200 200"
   version="1.1"
   id="svg1"
   sodipodi:docname="vector7negro.svg"
   xml:space="preserve"
   inkscape:version="1.3 (0e150ed6c4, 2023-07-21)"
   xmlns:inkscape="http://www.inkscape.org/namespaces/inkscape"
   xmlns:sodipodi="http://sodipodi.sourceforge.net/DTD/sodipodi-0.dtd"
   xmlns="http://www.w3.org/2000/svg"
   xmlns:svg="http://www.w3.org/2000/svg"><sodipodi:namedview
     id="namedview1"
     pagecolor="#ffffff"
     bordercolor="#000000"
     borderopacity="0.25"
     inkscape:showpageshadow="2"
     inkscape:pageopacity="0.0"
     inkscape:pagecheckerboard="true"
     inkscape:deskcolor="#d1d1d1"
     inkscape:document-units="mm"
     inkscape:zoom="0.5"
     inkscape:cx="-121"
     inkscape:cy="391"
     inkscape:window-width="1920"
     inkscape:window-height="991"
     inkscape:window-x="-9"
     inkscape:window-y="-9"
     inkscape:window-maximized="1"
     inkscape:current-layer="layer1" /><defs
     id="defs1"><pattern
       id="EMFhbasepattern"
       patternUnits="userSpaceOnUse"
       width="6"
       height="6"
       x="0"
       y="0" /><pattern
       id="EMFhbasepattern-3"
       patternUnits="userSpaceOnUse"
       width="6"
       height="6"
       x="0"
       y="0" /><pattern
       id="EMFhbasepattern-0"
       patternUnits="userSpaceOnUse"
       width="6"
       height="6"
       x="0"
       y="0" /><pattern
       id="EMFhbasepattern-2"
       patternUnits="userSpaceOnUse"
       width="6"
       height="6"
       x="0"
       y="0" /><pattern
       id="EMFhbasepattern-7"
       patternUnits="userSpaceOnUse"
       width="6"
       height="6"
       x="0"
       y="0" /><pattern
       id="EMFhbasepattern-70"
       patternUnits="userSpaceOnUse"
       width="6"
       height="6"
       x="0"
       y="0" /><pattern
       id="EMFhbasepattern-6"
       patternUnits="userSpaceOnUse"
       width="6"
       height="6"
       x="0"
       y="0" /><pattern
       id="EMFhbasepattern-08"
       patternUnits="userSpaceOnUse"
       width="6"
       height="6"
       x="0"
       y="0" /><pattern
       id="EMFhbasepattern-69"
       patternUnits="userSpaceOnUse"
       width="6"
       height="6"
       x="0"
       y="0" /></defs><g
     inkscape:label="Layer 1"
     inkscape:groupmode="layer"
     id="layer1"><path
       style="fill:#000000;stroke-width:3.40248"
       d="m 138.88296,196.15837 -2.70078,-1.20577 v -5.71828 c 0,-3.1451 -0.55727,-5.90406 -1.23837,-6.13111 l -1.23837,-0.4128 -0.61217,-11.39065 c -0.59877,-11.14133 -1.01384,-13.99936 -4.70489,-32.39682 -0.99341,-4.95146 -1.80681,-11.29253 -1.8076,-14.09125 -7.8e-4,-2.79874 -1.08144,-7.93027 -2.4015,-11.40335 l -2.40011,-6.3147 -6.2e-4,-12.56983 -5.8e-4,-12.569828 -2.58051,-8.176337 -2.58048,-8.176338 -1.32067,0.437492 -1.32065,0.437458 -0.34466,11.699915 -0.34471,11.699881 -4.15661,6.042708 -4.15664,6.042669 v 6.54615 c 0,3.6004 -0.6512,7.72601 -1.44707,9.16802 -0.79591,1.44203 -1.79964,6.29943 -2.23057,10.7942 -0.43093,4.49475 -1.304807,8.69363 -1.942007,9.33081 -3.269779,3.26978 -9.45774,1.89623 -13.673451,-3.03509 l -1.997768,-2.33689 -1.646836,2.63698 c -0.905741,1.45032 -2.597184,2.63697 -3.758757,2.63697 h -2.11199 l -0.16434,-2.7008 c -0.09051,-1.48541 -0.253484,-6.4819 -0.362058,-11.10325 -0.176929,-7.52417 -2.549072,-18.60032 -5.398414,-25.20736 -0.56944,-1.3204 -1.589165,-9.422767 -2.266071,-18.005292 L 66.742989,65.081306 64.707776,61.067464 C 63.588414,58.859865 62.242855,53.998431 61.717647,50.264308 61.192439,46.530184 60.18987,41.314347 59.489715,38.673578 58.789562,36.032808 58.203821,32.111377 58.188071,29.959273 l -0.02858,-3.91289 -2.400704,-2.055542 -2.4007,-2.055542 V 17.530785 13.12627 l 3.000878,-0.753174 3.000878,-0.753173 0.03817,-2.077744 c 0.03973,-2.1621865 2.659227,-6.2789769 3.995298,-6.2789769 0.422363,0 0.767933,1.7149061 0.767933,3.8109004 0,2.0959945 1.344046,7.7049565 2.986772,12.4643505 4.69756,13.61007 9.010412,30.706903 9.013712,35.73186 l 0.003,4.593251 4.303529,10.017591 c 2.366937,5.509709 5.259695,10.882945 6.428346,11.940573 l 2.124817,1.922914 1.963029,-0.753276 c 1.079675,-0.414321 3.858585,-3.335523 6.175344,-6.491598 l 4.212337,-5.738322 v -4.052732 c 0,-2.229001 1.88592,-9.448765 4.19098,-16.043934 l 4.19097,-11.991202 1.709,0.329359 1.70896,0.329361 0.79734,-3.630279 c 1.15212,-5.245473 2.36214,-4.546433 6.51467,3.763521 l 3.69474,7.393835 0.0107,6.110145 c 0.003,3.360565 1.15184,9.621134 2.54845,13.912381 l 2.53931,7.802301 0.84459,17.405098 0.84458,17.4051 2.08465,3.98876 2.08464,3.98873 -0.76706,3.49251 c -0.79507,3.61998 0.38843,10.85658 4.32133,26.42281 l 2.29525,9.08438 v 9.33173 9.33175 l 2.40069,3.052 2.40073,3.05198 v 6.75152 6.75148 l -2.10064,1.31107 -2.10062,1.31112 z M 93.569688,129.30011 c 0.889069,-2.80116 -0.260629,-7.2021 -1.881403,-7.2021 -0.615713,0 -1.11945,2.16065 -1.11945,4.80141 0,5.07178 1.717097,6.4455 3.000853,2.40069 z"
       id="path48" /></g></svg>
