<?xml version="1.0" encoding="UTF-8" standalone="no"?>
<!-- Created with Inkscape (http://www.inkscape.org/) -->

<svg
   width="200mm"
   height="200mm"
   viewBox="0 0 200 200"
   version="1.1"
   id="svg1"
   sodipodi:docname="vector4.svg"
   xml:space="preserve"
   inkscape:version="1.3 (0e150ed6c4, 2023-07-21)"
   xmlns:inkscape="http://www.inkscape.org/namespaces/inkscape"
   xmlns:sodipodi="http://sodipodi.sourceforge.net/DTD/sodipodi-0.dtd"
   xmlns="http://www.w3.org/2000/svg"
   xmlns:svg="http://www.w3.org/2000/svg"><sodipodi:namedview
     id="namedview1"
     pagecolor="#ffffff"
     bordercolor="#000000"
     borderopacity="0.25"
     inkscape:showpageshadow="2"
     inkscape:pageopacity="0.0"
     inkscape:pagecheckerboard="true"
     inkscape:deskcolor="#d1d1d1"
     inkscape:document-units="mm"
     inkscape:zoom="0.5"
     inkscape:cx="-121"
     inkscape:cy="391"
     inkscape:window-width="1920"
     inkscape:window-height="991"
     inkscape:window-x="-9"
     inkscape:window-y="-9"
     inkscape:window-maximized="1"
     inkscape:current-layer="layer1" /><defs
     id="defs1"><pattern
       id="EMFhbasepattern"
       patternUnits="userSpaceOnUse"
       width="6"
       height="6"
       x="0"
       y="0" /><pattern
       id="EMFhbasepattern-3"
       patternUnits="userSpaceOnUse"
       width="6"
       height="6"
       x="0"
       y="0" /><pattern
       id="EMFhbasepattern-0"
       patternUnits="userSpaceOnUse"
       width="6"
       height="6"
       x="0"
       y="0" /><pattern
       id="EMFhbasepattern-2"
       patternUnits="userSpaceOnUse"
       width="6"
       height="6"
       x="0"
       y="0" /><pattern
       id="EMFhbasepattern-7"
       patternUnits="userSpaceOnUse"
       width="6"
       height="6"
       x="0"
       y="0" /></defs><g
     inkscape:label="Layer 1"
     inkscape:groupmode="layer"
     id="layer1"><path
       style="fill:#ffffff;stroke-width:1.76693"
       d="m 81.978604,192.40648 c -0.769816,-0.8746 -1.319597,-3.63395 -1.221726,-6.13191 0.133226,-3.40131 -0.432951,-5.07157 -2.255063,-6.65186 -1.343893,-1.16556 -2.433012,-3.43544 -2.433012,-5.07074 0,-1.62831 -0.506049,-2.96058 -1.124545,-2.96058 -0.618497,0 -1.124546,-2.53021 -1.124546,-5.62269 0,-3.09249 -0.506031,-5.62271 -1.124528,-5.62271 -0.618496,0 -1.124546,-2.02417 -1.124546,-4.49815 0,-2.47401 -0.506048,-4.49816 -1.124545,-4.49816 -0.618497,0 -1.124528,-2.53021 -1.124528,-5.62272 0,-3.09249 -0.50605,-5.6227 -1.124547,-5.6227 -0.618495,0 -1.124545,-2.53021 -1.124545,-5.62268 0,-3.09249 -0.506031,-5.62271 -1.124528,-5.62271 -0.674739,0 -1.124545,-4.49816 -1.124545,-11.2454 0,-6.74723 -0.449826,-11.24539 -1.124546,-11.24539 -0.708027,0 -1.124529,-7.493757 -1.124529,-20.232196 0,-19.0143 -0.135347,-20.316723 -2.24909,-21.636761 -1.236993,-0.772503 -2.249075,-2.294925 -2.249075,-3.383143 0,-1.088218 -0.506048,-1.978575 -1.124545,-1.978575 -0.618496,0 -1.124528,-1.01208 -1.124528,-2.249073 0,-1.236994 0.506032,-2.249092 1.124528,-2.249092 0.618497,0 1.124545,-1.01208 1.124545,-2.249073 0,-1.919418 0.749693,-2.249075 5.114718,-2.249075 4.843459,0 5.52643,-0.41749 12.877925,-7.871783 4.269754,-4.329476 8.546699,-7.871784 9.504288,-7.871784 0.957605,0 1.741097,-0.798741 1.741097,-1.774971 0,-0.976229 2.02418,-3.719796 4.498166,-6.096796 2.473985,-2.377017 4.498165,-5.120584 4.498165,-6.096814 0,-0.976233 0.506031,-1.774973 1.124528,-1.774973 0.618496,0 1.124545,-0.77238 1.124545,-1.716401 0,-2.231606 9.546458,-11.778075 11.778078,-11.778075 0.94402,0 1.7164,-0.5060421 1.7164,-1.1245399 0,-0.6184967 1.94929,-1.1245386 4.33177,-1.1245386 4.2045,0 6.34164,14.6958695 5.85441,40.2576065 -0.027,1.422044 0.70396,4.38828 1.62457,6.591643 1.15584,2.76629 1.47008,5.968392 1.01539,10.346671 -0.65849,6.340579 -0.65849,6.340579 2.68323,2.685824 1.83793,-2.010113 4.3838,-3.654756 5.65747,-3.654756 1.27368,0 2.6285,-0.506048 3.01077,-1.124545 0.38226,-0.618497 1.56551,-1.124528 2.62945,-1.124528 1.06396,0 2.66394,-1.012098 3.55552,-2.249092 0.89157,-1.236993 2.40969,-2.249073 3.37361,-2.249073 0.96391,0 2.46444,-0.987661 3.33451,-2.194811 2.94963,-4.09239 16.9072,-3.144042 16.9072,1.148752 0,1.812324 -0.50603,3.295132 -1.12455,3.295132 -0.6185,0 -1.12451,0.697108 -1.12451,1.549122 0,0.852014 -0.7429,2.165657 -1.65087,2.919199 -0.90797,0.753562 -1.54052,1.766472 -1.40569,2.250948 0.13483,0.484474 -1.90548,3.189434 -4.5341,6.011063 -2.62861,2.821613 -4.77927,5.365375 -4.77927,5.65282 0,0.287445 -2.65674,4.924667 -5.90386,10.30496 -3.2471,5.380278 -7.16893,11.949749 -8.71517,14.598821 -1.54625,2.649067 -4.36481,7.023817 -6.26349,9.721667 -1.89867,2.69787 -4.13355,6.67636 -4.96634,8.84109 -2.8533,7.41656 -9.06743,20.14331 -10.16732,20.82308 -0.60476,0.37377 -2.08527,2.84333 -3.29003,5.48791 -1.20475,2.6446 -2.97457,5.4591 -3.93292,6.25448 -0.95837,0.79537 -1.74247,2.0648 -1.74247,2.82096 0,0.75614 -1.0121,2.29073 -2.24909,3.41021 -1.237,1.11945 -2.24908,2.43761 -2.24908,2.92925 0,0.49163 -1.51813,3.14332 -3.373618,5.89262 -1.85549,2.74933 -3.37362,5.26962 -3.37362,5.60063 0,0.33102 -1.610097,4.05295 -3.578,8.27097 -2.233947,4.7882 -3.523614,9.25321 -3.433199,11.88611 0.15761,4.59065 -3.185424,5.96176 -6.196169,2.54133 z m 3.08651,-26.18954 c 0,-1.83532 0.928347,-3.79448 2.249074,-4.74642 1.236993,-0.89156 2.249091,-2.52142 2.249091,-3.62187 0,-1.10045 0.506032,-2.00081 1.124529,-2.00081 0.618496,0 1.124546,-0.90039 1.124546,-2.00084 0,-1.10044 1.01208,-2.73029 2.249073,-3.62187 1.236994,-0.89158 2.249092,-2.52141 2.249092,-3.62187 0,-1.10045 0.506031,-2.00083 1.124528,-2.00083 0.618496,0 1.124545,-1.01208 1.124545,-2.24908 0,-1.23699 0.506048,-2.24909 1.124545,-2.24909 0.618493,0 1.124523,-1.01207 1.124523,-2.24906 0,-1.237 0.50605,-2.2491 1.12455,-2.2491 0.6185,0 1.12455,-0.7919 1.12455,-1.75981 0,-0.96791 2.53021,-4.22432 5.62269,-7.23649 3.09247,-3.01217 5.62269,-6.1569 5.62269,-6.98826 0,-0.83136 1.01208,-2.24104 2.24909,-3.13261 1.23699,-0.89158 2.24908,-2.52142 2.24908,-3.62188 0,-1.10043 0.50604,-2.00081 1.12454,-2.00081 0.61849,0 1.12452,-1.0121 1.12452,-2.24909 0,-1.237 0.50606,-2.24907 1.12455,-2.24907 0.6185,0 1.12454,-1.01208 1.12454,-2.24908 0,-1.23699 0.50606,-2.24909 1.12455,-2.24909 0.6185,0 1.12454,-1.01208 1.12454,-2.249067 0,-1.237 0.50604,-2.249083 1.12454,-2.249083 0.61851,0 1.12454,-1.012091 1.12454,-2.249082 0,-1.237003 0.50604,-2.249083 1.12453,-2.249083 0.6185,0 1.12455,-0.900368 1.12455,-2.000817 0,-1.10046 1.01208,-2.730302 2.24907,-3.621869 1.23699,-0.89158 2.2491,-2.521433 2.2491,-3.621882 0,-1.100461 0.50602,-2.000829 1.12452,-2.000829 0.61849,0 1.12455,-0.900357 1.12455,-2.000822 0,-1.100464 1.01208,-2.730298 2.24907,-3.621874 1.237,-0.891576 2.24909,-2.409707 2.24909,-3.373619 0,-0.963914 1.01208,-2.482044 2.24907,-3.37362 1.237,-0.891575 2.24908,-2.068828 2.24908,-2.616135 0,-0.54729 1.26511,-2.498583 2.81134,-4.336191 5.78591,-6.876137 1.78786,-9.155195 -4.57204,-2.606259 -2.18154,2.246388 -4.931,3.935892 -6.40522,3.935892 -1.42064,0 -3.31243,1.012081 -4.20401,2.249075 -0.89158,1.236993 -2.26261,2.249073 -3.04676,2.249073 -1.88941,0 -5.94956,3.529975 -5.94956,5.172656 0,2.67971 -3.0418,4.049964 -5.53459,2.493192 -2.79935,-1.748237 -3.67515,-27.274155 -0.96676,-28.17695 1.07604,-0.35867 1.07104,-2.009408 -0.0232,-7.684348 -0.76652,-3.975154 -1.43773,-11.68378 -1.49159,-17.130274 -0.11408,-11.537439 -3.16842,-13.4139717 -8.5917,-5.278561 -1.44307,2.164739 -6.14031,7.630788 -10.43832,12.14678 -4.297989,4.515994 -7.814553,8.94387 -7.814553,9.839723 0,0.895851 -1.01208,1.628827 -2.249073,1.628827 -1.499382,0 -2.249075,0.749692 -2.249075,2.249091 0,1.266714 -0.74969,2.249074 -1.716413,2.249074 -10.149695,0 -17.038818,34.116508 -11.013246,54.540172 0.729883,2.47399 1.962265,8.29349 2.738601,12.93221 0.891681,5.32795 2.163078,9.10386 3.452212,10.25277 1.514438,1.3497 2.040682,3.45217 2.040682,8.15292 0,3.4838 0.506049,6.3342 1.124546,6.3342 0.618497,0 1.124527,1.01208 1.124527,2.24906 0,1.23701 0.50605,2.24909 1.124546,2.24909 0.618497,0 1.124545,1.51813 1.124545,3.37361 0,1.85552 0.506032,3.37362 1.124529,3.37362 0.618496,0 1.124546,0.9626 1.124546,2.13909 0,2.2108 -5.820271,5.11785 -7.353615,3.67294 -1.136013,-1.07054 0.652971,4.65042 1.857311,5.93942 0.548984,0.58758 0.998138,2.73826 0.998138,4.77929 0,2.04105 0.50605,3.711 1.124546,3.711 0.618497,0 1.124545,-1.40644 1.124545,-3.12538 z"
       id="path48" /></g></svg>
