<?xml version="1.0" encoding="UTF-8" standalone="no"?>
<!-- Created with Inkscape (http://www.inkscape.org/) -->

<svg
   width="200mm"
   height="200mm"
   viewBox="0 0 200 200"
   version="1.1"
   id="svg1"
   sodipodi:docname="vector3.svg"
   xml:space="preserve"
   inkscape:version="1.3 (0e150ed6c4, 2023-07-21)"
   xmlns:inkscape="http://www.inkscape.org/namespaces/inkscape"
   xmlns:sodipodi="http://sodipodi.sourceforge.net/DTD/sodipodi-0.dtd"
   xmlns="http://www.w3.org/2000/svg"
   xmlns:svg="http://www.w3.org/2000/svg"><sodipodi:namedview
     id="namedview1"
     pagecolor="#ffffff"
     bordercolor="#000000"
     borderopacity="0.25"
     inkscape:showpageshadow="2"
     inkscape:pageopacity="0.0"
     inkscape:pagecheckerboard="true"
     inkscape:deskcolor="#d1d1d1"
     inkscape:document-units="mm"
     inkscape:zoom="0.5"
     inkscape:cx="-489"
     inkscape:cy="391"
     inkscape:window-width="1920"
     inkscape:window-height="991"
     inkscape:window-x="-9"
     inkscape:window-y="-9"
     inkscape:window-maximized="1"
     inkscape:current-layer="layer1" /><defs
     id="defs1"><pattern
       id="EMFhbasepattern"
       patternUnits="userSpaceOnUse"
       width="6"
       height="6"
       x="0"
       y="0" /><pattern
       id="EMFhbasepattern-3"
       patternUnits="userSpaceOnUse"
       width="6"
       height="6"
       x="0"
       y="0" /><pattern
       id="EMFhbasepattern-0"
       patternUnits="userSpaceOnUse"
       width="6"
       height="6"
       x="0"
       y="0" /><pattern
       id="EMFhbasepattern-2"
       patternUnits="userSpaceOnUse"
       width="6"
       height="6"
       x="0"
       y="0" /></defs><g
     inkscape:label="Layer 1"
     inkscape:groupmode="layer"
     id="layer1"><path
       style="fill:#ffffff;stroke-width:8.74176"
       d="m 65.184528,180.28459 c 0,-6.75413 1.381521,-12.28021 3.070049,-12.28021 1.688527,0 3.070057,-6.90756 3.070057,-15.35026 0,-8.44258 1.38152,-15.35023 3.070048,-15.35023 1.705588,0 3.070043,-8.18682 3.070043,-18.42035 0,-18.42023 0,-18.42023 -9.210148,-18.42023 -5.065586,0 -9.210153,-1.381557 -9.210153,-3.070117 0,-1.68846 -2.135085,-3.07002 -4.744626,-3.07002 -6.952239,0 -22.313248,-16.052797 -17.042284,-17.809801 2.273764,-0.757907 6.724465,-3.968413 9.890451,-7.1344 8.573485,-8.573478 36.456874,-8.279913 36.456874,0.383758 0,4.985589 2.046696,6.140119 10.88472,6.140119 14.759471,0 25.955891,-11.196427 25.955891,-25.955912 0,-7.848497 1.34571,-10.884685 4.82437,-10.884685 5.91718,0 13.59594,-7.296042 13.59594,-12.918215 0,-2.280615 2.76304,-6.138088 6.14012,-8.572132 3.37706,-2.434067 6.14009,-6.192827 6.14009,-8.3529206 0,-2.159999 1.38152,-3.927317 3.07004,-3.927317 1.68855,0 3.07006,3.453769 3.07006,7.6751726 0,4.221285 -1.38151,7.675078 -3.07006,7.675078 -1.68852,0 -3.07004,5.526079 -3.07004,12.280215 0,6.754136 -1.38153,12.280238 -3.07005,12.280238 -1.68853,0 -3.07004,2.762992 -3.07004,6.140096 0,3.377032 -1.38153,6.140119 -3.07006,6.140119 -1.68852,0 -3.07006,4.144547 -3.07006,9.210131 0,5.065584 -1.38154,9.210132 -3.07006,9.210132 -1.68852,0 -3.07003,2.763087 -3.07003,6.140119 0,3.377103 -1.38154,6.140096 -3.07007,6.140096 -1.68851,0 -3.05926,2.417706 -3.04609,5.372599 0.0236,5.19642 12.38491,13.047757 20.54345,13.047757 2.19613,0 3.99301,1.38144 3.99301,3.07001 0,1.68856 4.48995,3.11398 9.97767,3.16774 9.29523,0.0908 20.72286,5.72593 20.72286,10.21841 0,3.20358 -14.8219,2.23271 -16.88528,-1.10594 -1.0436,-1.68854 -5.96045,-3.0701 -10.92637,-3.0701 -4.96596,0 -9.02897,-1.38144 -9.02897,-3.07001 0,-5.67479 -16.93075,-3.25611 -21.49037,3.07001 -2.43405,3.37713 -6.25563,6.14012 -8.49243,6.14012 -5.60359,0 -19.138043,14.01381 -19.138043,19.8158 0,2.60957 -1.381516,4.74466 -3.07005,4.74466 -1.688521,0 -3.070047,2.76302 -3.070047,6.14011 0,3.37704 -1.381517,6.14013 -3.07005,6.14013 -1.688534,0 -3.070051,2.64786 -3.070051,5.88424 0,3.23636 -1.508812,6.38725 -3.35291,7.00187 -1.844098,0.61454 -3.571006,4.87344 -3.83756,9.4638 -0.849353,14.62618 -11.229841,10.99372 -11.229841,-3.92968 z"
       id="path48" /></g></svg>
