<?xml version="1.0" encoding="UTF-8" standalone="no"?>
<!-- Created with Inkscape (http://www.inkscape.org/) -->

<svg
   width="200mm"
   height="200mm"
   viewBox="0 0 200 200"
   version="1.1"
   id="svg1"
   sodipodi:docname="vector1.svg"
   xml:space="preserve"
   inkscape:version="1.3 (0e150ed6c4, 2023-07-21)"
   xmlns:inkscape="http://www.inkscape.org/namespaces/inkscape"
   xmlns:sodipodi="http://sodipodi.sourceforge.net/DTD/sodipodi-0.dtd"
   xmlns="http://www.w3.org/2000/svg"
   xmlns:svg="http://www.w3.org/2000/svg"><sodipodi:namedview
     id="namedview1"
     pagecolor="#ffffff"
     bordercolor="#000000"
     borderopacity="0.25"
     inkscape:showpageshadow="2"
     inkscape:pageopacity="0.0"
     inkscape:pagecheckerboard="true"
     inkscape:deskcolor="#d1d1d1"
     inkscape:document-units="mm"
     inkscape:zoom="0.70710678"
     inkscape:cx="-40.305086"
     inkscape:cy="249.60869"
     inkscape:window-width="1920"
     inkscape:window-height="991"
     inkscape:window-x="-9"
     inkscape:window-y="-9"
     inkscape:window-maximized="1"
     inkscape:current-layer="layer1" /><defs
     id="defs1"><pattern
       id="EMFhbasepattern"
       patternUnits="userSpaceOnUse"
       width="6"
       height="6"
       x="0"
       y="0" /></defs><g
     inkscape:label="Layer 1"
     inkscape:groupmode="layer"
     id="layer1"><path
       style="fill:#ffffff;stroke-width:1.02219"
       d="m 61.853295,189.40974 c -1.850845,-1.11997 -1.429276,-5.02956 0.799997,-7.41909 1.237948,-1.32694 1.753215,-2.40017 1.491947,-3.10752 -0.453736,-1.22843 -1.913282,-1.45106 -2.267861,-0.34593 -0.17565,0.54747 -1.578623,0.54793 -5.507236,0.002 -2.899347,-0.403 -9.4799,-1.1928 -14.62345,-1.75512 -9.16625,-1.00208 -14.617316,-1.80831 -26.497074,-3.91904 -7.789238,-1.38395 -7.481527,-1.25402 -7.481527,-3.15884 0,-2.21361 1.086196,-2.52938 6.082643,-1.76832 2.312451,0.35223 4.321356,0.52986 4.464231,0.39471 0.616964,-0.58354 -0.734885,-1.04006 -4.52651,-1.52858 -4.52157,-0.58258 -5.396903,-0.95851 -5.396903,-2.31782 0,-1.11622 -2.554568,-1.25891 -3.5741643,-0.19963 -1.0711205,1.1128 -2.6604417,0.15358 -2.6604417,-1.60568 0,-2.95047 1.1590899,-3.24916 10.83595,-2.79235 l 8.918758,0.42102 0.761227,-2.75049 c 0.418675,-1.51277 0.902524,-3.26057 1.07522,-3.88401 0.203923,-0.73616 -0.02857,-1.13352 -0.663212,-1.13352 -0.553716,0 -0.977205,0.5482 -0.977205,1.26498 0,1.66717 -1.290921,4.56453 -2.033732,4.56453 -1.174521,0 1.359618,-17.76092 3.544601,-24.84291 0.455671,-1.47692 1.161522,-4.14269 1.568559,-5.92393 0.765234,-3.34875 1.0403,-4.44197 3.17803,-12.6306 1.353341,-5.18401 4.181419,-17.830829 4.707415,-21.050991 0.315003,-1.928455 -1.612839,-3.730487 -9.008297,-8.420397 -0.561762,-0.356253 -2.166651,-1.667892 -3.56642,-2.914753 -1.39977,-1.246872 -3.994925,-3.0685 -5.76701,-4.048078 -1.772087,-0.979577 -3.221976,-2.072611 -3.221976,-2.428966 0,-0.978002 2.714985,-0.776776 4.089198,0.303079 1.580425,1.241889 2.825965,1.252709 2.370868,0.02064 -0.628219,-1.70083 1.210126,-1.062954 4.574898,1.587404 12.102841,9.533148 17.020762,8.62268 17.020762,-3.151104 0,-0.820146 0.401616,-1.351054 1.022034,-1.351054 1.023288,0 0.997412,3.726827 -0.05171,7.448812 -0.200835,0.712497 0.08503,0.285965 0.635251,-0.94785 1.245524,-2.792938 2.324976,-9.513562 1.8463,-11.49498 -0.255653,-1.058242 -0.08697,-1.483216 0.58875,-1.483216 0.520887,0 0.947068,0.551767 0.947068,1.226146 0,0.674381 0.420837,1.393922 0.935192,1.59898 1.059938,0.422565 1.302377,4.887489 0.36584,6.737581 -0.603263,1.191714 -3.119858,11.262736 -3.34817,13.398853 -0.07539,0.705297 0.415535,1.568062 1.111948,1.954172 8.09874,4.49025 19.789197,13.972612 18.020834,14.617052 -0.944372,0.34417 -0.810722,0.59266 0.875266,1.62735 1.094406,0.67164 1.989828,1.4498 1.989828,1.72923 0,0.8762 -1.639995,0.55529 -3.196246,-0.62545 -0.821714,-0.62343 -2.051918,-1.47881 -2.733787,-1.90084 -2.200735,-1.36212 -10.830639,-6.94425 -14.084627,-9.110439 -4.106672,-2.733825 -3.844611,-2.882141 -5.150072,2.914749 -1.89464,8.41315 -4.242304,19.71828 -4.875933,23.47996 -0.648673,3.851 -1.736916,8.16214 -3.351782,13.27831 -0.562229,1.78125 -1.520037,5.57042 -2.128462,8.42041 -0.608425,2.84998 -1.420553,6.34768 -1.804729,7.77268 -1.4328,5.31456 -1.009706,7.44881 1.476657,7.44881 1.200161,0 2.182111,0.25024 2.182111,0.5561 0,0.30585 2.174319,0.90882 4.83182,1.33992 2.657501,0.43111 5.392934,0.93515 6.07874,1.1201 3.553213,0.95819 15.237638,2.09348 21.89422,2.12729 l 7.554628,0.0383 9.353889,-9.71585 c 5.144639,-5.34372 9.662401,-9.71585 10.039469,-9.71585 0.377069,0 1.293225,-0.85386 2.035903,-1.89748 3.910462,-5.49502 10.9526,-9.60716 13.53695,-7.90469 0.48056,0.31657 1.93746,0.12487 3.50681,-0.46143 5.0353,-1.88115 8.04359,2.80052 4.66603,7.2615 -0.88695,1.17145 -1.03359,1.7073 -0.46759,1.70871 0.97481,0.002 9.62692,-2.48219 11.4234,-3.28044 0.68581,-0.30473 1.94569,-0.63906 2.79974,-0.74294 0.94595,-0.11506 1.85366,-0.8432 2.32264,-1.86316 0.42341,-0.92085 4.45428,-5.69779 8.95748,-10.61543 4.50321,-4.91763 10.27285,-11.88831 12.82143,-15.49038 10.81247,-15.281929 13.55898,-18.53209 15.66034,-18.53209 0.81754,0 2.79932,-1.155452 4.42616,-2.580598 3.44253,-3.015753 6.25768,-3.866864 7.73015,-2.337089 1.09304,1.135582 2.95216,1.391517 2.95216,0.406418 0,-0.343715 -0.56364,-0.938332 -1.25253,-1.32136 -1.49478,-0.831109 -1.16931,-3.092001 0.88535,-6.150251 4.78539,-7.12278 6.57156,-12.630599 4.09607,-12.630599 -1.34683,0 -0.48079,-2.564435 1.77382,-5.25252 5.20544,-6.206224 6.80014,-9.645107 4.47266,-9.645107 -1.61185,0 -1.57402,-0.480433 0.15586,-1.979724 5.40787,-4.686979 6.67079,3.580275 1.6877,11.047846 -0.59431,0.89062 -1.41462,3.513897 -1.82293,5.829505 -0.99321,5.632888 -2.07258,9.715846 -2.56849,9.715846 -0.2229,0 -0.55814,1.184118 -0.74498,2.631371 -0.18685,1.447254 -1.03877,4.143403 -1.89316,5.99144 -1.91132,4.134169 -2.59841,7.299337 -1.70856,7.870693 2.30017,1.47691 -2.36111,12.309819 -5.90466,13.722529 -0.5043,0.20105 -0.91691,0.83904 -0.91691,1.41775 0,0.57872 -6.31254,7.5232 -14.02787,15.43219 -13.51615,13.85542 -14.02786,14.47197 -14.02786,16.90183 0,6.18879 -12.97694,12.83569 -16.5197,8.46152 -2.80463,-3.46284 -9.56269,-2.2337 -23.90814,4.34832 -5.0199,2.30326 -9.77907,4.18773 -10.57595,4.18773 -1.989664,0 -3.860729,-1.13591 -3.860729,-2.3438 0,-1.65963 -0.91412,-0.85057 -6.393731,5.65884 -6.626653,7.87202 -24.434768,25.1912 -25.875498,25.16507 -0.597251,-0.0108 -1.576887,-0.31679 -2.176968,-0.67991 z M 171.75785,105.8863 c 1.11204,-1.07922 1.88437,-2.1051 1.71629,-2.27971 -0.16809,-0.17462 -1.38364,0.70838 -2.70124,1.96221 -1.31761,1.25385 -2.08994,2.27973 -1.71629,2.27973 0.37365,0 1.58921,-0.883 2.70124,-1.96223 z M 39.990474,83.113606 c -0.199025,-0.516701 -0.346757,-0.363219 -0.376674,0.391337 -0.02707,0.682803 0.120283,1.065364 0.327454,0.850135 0.207171,-0.215228 0.22932,-0.773897 0.04922,-1.241472 z m 69.557556,-4.870654 c -0.92619,-2.07192 -0.98401,-3.858363 -0.20741,-6.408322 1.09405,-3.592346 1.32738,-5.440371 0.68689,-5.440371 -0.34944,0 -0.63534,0.743164 -0.63534,1.651474 0,1.925783 -1.62679,5.473477 -2.50986,5.473477 -1.32286,0 -0.34718,-4.794004 3.09125,-15.18882 2.05333,-6.207483 2.03985,-7.205405 -0.12452,-9.220136 -1.12071,-1.043233 -7.91431,-4.313703 -9.18532,-4.421859 -0.690612,-0.05877 -4.130123,-2.601246 -5.29942,-3.917326 -0.685807,-0.771895 -2.228871,-1.793472 -3.429033,-2.27017 -1.200161,-0.476698 -3.472051,-1.648864 -5.048643,-2.604814 -1.576593,-0.95595 -3.533896,-1.958146 -4.349563,-2.227103 -4.862307,-1.603292 -7.423873,-5.490379 -3.618126,-5.490379 1.65973,0 1.8323,-0.143234 1.170582,-0.971584 -0.426877,-0.534372 -1.027919,-0.971585 -1.33565,-0.971585 -0.307731,0 -1.606026,-0.67372 -2.885098,-1.497155 -1.279074,-0.823436 -3.307538,-1.882723 -4.5077,-2.353975 -4.713603,-1.850825 -9.877635,-4.665847 -10.210001,-5.565687 -0.192332,-0.520713 -0.779335,-0.946751 -1.304453,-0.946751 -0.602767,0 -0.954758,-0.596989 -0.954758,-1.619308 0,-0.890619 0.177868,-1.619307 0.395263,-1.619307 1.189403,0 5.873938,1.751558 8.141436,3.044101 1.437603,0.819478 2.980668,1.491756 3.429033,1.49395 0.448366,0.0022 1.654496,0.458641 2.680289,1.014326 1.113976,0.603453 2.620454,0.866133 3.740764,0.652265 1.345874,-0.256928 2.668151,0.120975 4.681256,1.337891 6.075636,3.672704 11.848263,6.707373 12.758942,6.707373 0.526455,0 0.95719,0.256113 0.95719,0.569141 0,0.313028 0.841672,0.93134 1.870382,1.374028 1.028714,0.442687 1.870386,1.061 1.870386,1.374028 0,0.313028 0.56112,0.569141 1.246922,0.569141 0.68581,0 1.2491,0.218606 1.25179,0.485792 0.007,0.724214 3.15288,2.1051 4.79538,2.1051 0.78889,0 1.43436,0.270083 1.43436,0.600186 0,0.782658 6.39565,4.581598 7.71328,4.581598 0.73283,0 1.01517,-0.594475 1.01517,-2.137487 0,-1.175617 0.26446,-2.414387 0.58769,-2.752822 0.32324,-0.338435 0.85136,-1.781239 1.17358,-3.206229 0.7075,-3.128802 2.78586,-10.876592 4.34342,-16.191542 1.19479,-4.077044 2.43059,-5.0744687 4.29524,-3.466722 1.08884,0.938835 0.8837,10.092262 -0.32081,14.314094 -3.37216,11.819478 -4.31951,18.305706 -2.75346,18.852003 1.16536,0.406524 2.46548,1.216841 5.45527,3.400071 1.02871,0.751192 2.4315,1.550265 3.1173,1.775716 0.68582,0.225452 2.00621,1.141817 2.93424,2.036368 0.92801,0.894551 2.12038,1.626455 2.6497,1.626455 0.52932,0 0.9624,0.222359 0.9624,0.49413 0,0.271771 0.55453,0.781853 1.23229,1.133515 14.89384,7.727872 19.57376,10.654128 18.62138,11.643571 -0.16349,0.169847 -1.16936,0.04896 -2.23527,-0.268634 -3.68277,-1.097309 -3.65741,0.859657 0.0331,2.555685 2.65159,1.218571 5.28447,3.578799 4.68591,4.200658 -0.3616,0.375677 -6.15394,-2.105722 -9.15164,-3.920501 -1.14895,-0.695561 -3.53369,-2.14337 -5.29941,-3.217354 -4.22663,-2.570788 -11.97762,-6.14223 -13.34715,-6.149993 -0.59705,-0.0034 -2.80725,-1.14099 -4.91153,-2.528013 -4.21342,-2.777242 -8.99859,-3.805929 -9.30297,-1.999895 -0.09,0.534372 -0.63103,2.720437 -1.20217,4.857923 -0.57113,2.137486 -1.43426,5.762527 -1.91806,8.055647 -0.48379,2.293119 -1.16387,4.464611 -1.51128,4.825532 -0.34739,0.360931 -0.63164,1.033148 -0.63164,1.493828 0,4.231812 -3.47624,7.307278 -4.83182,4.274777 z M 98.481606,35.607341 c -1.028713,-0.876038 -2.322209,-1.594245 -2.874439,-1.596014 -0.55223,-0.0017 -1.955015,-0.661764 -3.117303,-1.466654 -2.326984,-1.61145 -5.270913,-3.070624 -6.195077,-3.070624 -1.148928,0 -0.578274,1.333868 0.808661,1.890195 0.771532,0.309478 3.787523,1.748595 6.702201,3.198038 6.086599,3.026811 7.329191,3.304525 4.675957,1.045059 z"
       id="path47" /></g></svg>
