<?xml version="1.0" encoding="UTF-8" standalone="no"?>
<!-- Created with Inkscape (http://www.inkscape.org/) -->

<svg
   width="200mm"
   height="200mm"
   viewBox="0 0 200 200"
   version="1.1"
   id="svg1"
   sodipodi:docname="vector2.svg"
   xml:space="preserve"
   inkscape:version="1.3 (0e150ed6c4, 2023-07-21)"
   xmlns:inkscape="http://www.inkscape.org/namespaces/inkscape"
   xmlns:sodipodi="http://sodipodi.sourceforge.net/DTD/sodipodi-0.dtd"
   xmlns="http://www.w3.org/2000/svg"
   xmlns:svg="http://www.w3.org/2000/svg"><sodipodi:namedview
     id="namedview1"
     pagecolor="#ffffff"
     bordercolor="#000000"
     borderopacity="0.25"
     inkscape:showpageshadow="2"
     inkscape:pageopacity="0.0"
     inkscape:pagecheckerboard="true"
     inkscape:deskcolor="#d1d1d1"
     inkscape:document-units="mm"
     inkscape:zoom="0.5"
     inkscape:cx="-489"
     inkscape:cy="391"
     inkscape:window-width="1920"
     inkscape:window-height="991"
     inkscape:window-x="-9"
     inkscape:window-y="-9"
     inkscape:window-maximized="1"
     inkscape:current-layer="layer1" /><defs
     id="defs1"><pattern
       id="EMFhbasepattern"
       patternUnits="userSpaceOnUse"
       width="6"
       height="6"
       x="0"
       y="0" /><pattern
       id="EMFhbasepattern-3"
       patternUnits="userSpaceOnUse"
       width="6"
       height="6"
       x="0"
       y="0" /><pattern
       id="EMFhbasepattern-0"
       patternUnits="userSpaceOnUse"
       width="6"
       height="6"
       x="0"
       y="0" /></defs><g
     inkscape:label="Layer 1"
     inkscape:groupmode="layer"
     id="layer1"><path
       id="path48"
       style="fill:#ffffff;stroke-width:6.14273"
       d="m 129.84997,4.976695 c -4.82095,0 -5.5873,5.572976 -4.9551,36.074333 0.35767,17.253794 -0.23425,29.176356 -1.44735,29.176356 -1.12836,0 -1.43184,-0.619131 -0.67652,-1.374555 1.32579,-1.325843 -1.41418,-7.859259 -5.29503,-12.627919 -1.03457,-1.271543 -3.79347,-4.758113 -6.12944,-7.748779 -4.24853,-5.437587 -4.24829,-5.435895 -3.99648,2.720446 0.13832,4.485987 0.89038,8.155175 1.66958,8.155175 0.77911,0 2.76004,3.425342 4.40271,7.612334 1.64289,4.186908 3.62575,7.612323 4.40627,7.612323 3.76385,0 6.52463,13.108616 6.56143,31.153921 0.009,10.97689 1.17356,27.02039 2.55879,35.64925 3.91266,24.37732 -4.70886,38.78945 -17.28468,28.89686 -9.10152,-7.15915 -23.537513,-6.02601 -27.779883,2.17756 -4.259864,8.23792 -31.538219,0.43186 -31.538219,-9.0248 0,-1.01765 -1.512877,-1.85073 -3.361559,-1.85073 -1.848862,0 -5.816281,-2.45462 -8.815564,-5.45358 -4.386949,-4.38734 -6.2759,-5.01123 -9.666115,-3.19673 -3.832838,2.05148 14.786527,26.01366 19.668894,25.3131 0.598104,-0.0856 5.860355,2.00251 11.694522,4.64074 5.834388,2.6384 11.216322,4.81981 11.961392,4.84436 0.745164,0.0212 3.802672,1.94378 6.793342,4.2601 9.573312,7.41351 14.396071,5.16227 14.129446,-6.59666 -0.229485,-10.11188 -0.229405,-10.11121 6.431747,-8.60897 7.458757,1.68235 16.414617,6.72476 16.414617,9.24413 0,3.75425 10.8541,1.40807 13.1264,-2.83809 2.0534,-3.83657 2.93415,-4.0746 6.05709,-1.63175 3.21606,2.51653 3.32413,2.43752 0.89849,-0.66984 -2.26814,-2.90494 -2.01143,-5.0234 1.45042,-11.96112 4.65321,-9.32543 7.35465,-16.0885 7.64075,-19.12639 0.4675,-4.96098 5.62821,-3.40128 5.62821,1.70191 0,6.8167 6.07698,10.83614 10.1807,6.73312 1.57818,-1.57871 2.86974,-3.97471 2.86974,-5.32726 0,-1.35192 1.12986,-1.76131 2.51098,-0.90792 1.38098,0.85364 1.93653,0.626 1.23793,-0.50414 -0.69863,-1.13048 0.006,-4.95143 1.59042,-8.49189 1.57242,-3.54006 4.6179,-10.35067 6.76797,-15.13581 6.93497,-15.43487 12.52144,-51.539393 9.12654,-58.990564 -3.22102,-7.068853 -5.20493,-4.833821 -6.87306,7.739255 -0.79036,5.95907 -2.38732,11.421394 -3.54838,12.139119 -1.16204,0.717948 -2.11457,4.182992 -2.11457,7.701219 0,3.518088 -0.83038,6.396531 -1.84449,6.396531 -1.01393,0 -1.93149,3.07234 -2.03798,6.82509 -0.10684,3.75267 -1.23298,7.8616 -2.5044,9.13305 -1.27213,1.27123 -2.31096,4.56547 -2.31096,7.31707 0,2.7511 -1.22523,4.96978 -2.72088,4.93282 -4.32475,-0.10952 -10.32956,-5.52919 -10.32956,-9.32021 0,-1.90884 -2.93761,-8.44918 -6.52637,-14.53588 -3.58877,-6.08638 -6.52367,-12.296493 -6.52367,-13.799129 0,-1.502421 -0.97302,-3.703074 -2.16181,-4.891939 -1.26735,-1.267606 -2.21769,-18.983026 -2.29512,-42.848584 C 132.78624,13.19271 132.17387,4.9767468 129.84997,4.9767468 Z M 76.875095,39.835217 c -1.157898,0 -2.956123,1.975827 -4.466477,5.923545 -1.258627,3.289702 -4.775755,11.853295 -7.815541,19.030807 -3.039752,7.177469 -5.530652,14.272137 -5.53617,15.767421 -0.0028,4.681904 -3.265812,2.982365 -7.275885,-3.806132 -2.179452,-3.689505 -5.691924,-6.523474 -8.082113,-6.523474 -5.571347,0 -5.462724,0.438418 3.155415,12.500983 7.384349,10.336376 7.386482,10.337425 4.180693,24.474843 -1.763175,7.77573 -3.566934,18.29582 -4.006084,23.38025 -1.491772,17.26681 7.23648,6.88811 10.97414,-13.0504 1.966195,-10.48944 2.871215,-10.26889 11.389749,2.75828 3.897056,5.95959 8.667848,10.83469 10.599491,10.83469 2.691576,0 2.945266,-0.68053 1.088918,-2.91755 -1.33257,-1.60533 -1.864341,-3.47801 -1.181086,-4.16149 0.683409,-0.68366 -0.413597,-3.77518 -2.441024,-6.86963 -2.027521,-3.09418 -3.014767,-5.62502 -2.193508,-5.62502 0.821172,0 -0.114403,-1.6057 -2.076117,-3.56837 -7.798876,-7.7985 -10.455671,-13.674252 -7.688494,-17.008375 1.440768,-1.736106 2.039706,-4.0959 1.330023,-5.244234 -0.70968,-1.148162 -0.127478,-4.863437 1.295189,-8.253566 1.42238,-3.390095 2.764549,-7.857791 2.980878,-9.929661 0.216112,-2.071857 1.370496,-5.009723 2.568047,-6.52661 1.197572,-1.516874 2.190057,-4.224293 2.203149,-6.018737 0.002,-1.794441 0.740885,-5.954323 1.618876,-9.244025 1.053657,-3.947718 0.535712,-5.923545 -0.622069,-5.923545 z m 57.717665,66.472933 c 0.68465,0.21455 1.87744,2.79576 4.26296,7.9616 2.62474,5.68217 5.87164,10.33283 7.21578,10.33283 2.55186,0 0.77251,8.83414 -2.19021,10.87546 -0.86822,0.59811 -3.20802,4.26714 -5.19965,8.15507 -6.14775,11.99857 -8.00596,4.6158 -2.6002,-10.32951 2.2982,-6.35388 2.24485,-7.98787 -0.32488,-9.87584 -1.99822,-1.46873 -2.83021,-5.28138 -2.37381,-10.87539 0.351,-4.30675 0.52488,-6.45907 1.20928,-6.24422 z" /></g></svg>
