<svg xmlns="http://www.w3.org/2000/svg" viewBox="0 0 1126.72 842.09"><defs><style>.cls-1{fill:#fff;}</style></defs><g id="Capa_2" data-name="Capa 2"><g id="Layer_1" data-name="Layer 1"><path class="cls-1" d="M853.38,421c225.07-196.1,331.82-371.8,241-412.48-81.72-36.6-299,47.05-531,195.71C331.36,55.61,114.07-28,32.35,8.56-58.47,49.24,48.27,224.94,273.34,421,48.27,617.15-58.47,792.84,32.35,833.52c81.72,36.61,299-47,531-195.7,232,148.66,449.29,232.31,531,195.7C1185.2,792.84,1078.45,617.15,853.38,421ZM1024.79,62.61c83.55,37.42,3.39,185.46-180,351q-44-38-93.72-76.63c-58.39-45.36-117.91-87.5-176.62-125.57C768.9,92.83,950.67,29.41,1024.79,62.61ZM836.47,421c-29.43,26.21-61.4,52.82-95.7,79.47A2049.35,2049.35,0,0,1,563.36,623.88,2049.35,2049.35,0,0,1,386,500.51c-34.3-26.65-66.26-53.26-95.7-79.47,29.44-26.21,61.4-52.81,95.7-79.46A2047.29,2047.29,0,0,1,563.36,218.2,2047.29,2047.29,0,0,1,740.77,341.58C775.07,368.23,807,394.83,836.47,421ZM101.93,62.61c74.13-33.2,255.89,30.22,450.36,148.79C493.58,249.47,434.06,291.61,375.66,337Q326,375.52,281.94,413.6C98.55,248.07,18.39,100,101.93,62.61Zm0,716.87c-83.54-37.42-3.38-185.47,180-351q44,38,93.72,76.63c58.4,45.36,117.92,87.5,176.63,125.56C357.82,749.25,176.06,812.68,101.93,779.48Zm922.86,0c-74.13,33.2-255.89-30.23-450.35-148.8,58.71-38.06,118.23-80.2,176.62-125.56q49.62-38.55,93.72-76.63C1028.18,594,1108.33,742.06,1024.79,779.48Z"/><circle class="cls-1" cx="563.36" cy="411.59" r="141.02" transform="translate(-126.03 518.91) rotate(-45)"/></g></g></svg>