<svg xmlns="http://www.w3.org/2000/svg" viewBox="0 0 980.18 1087.36"><defs><style>.cls-1{fill:#fff;}</style></defs><g id="Capa_2" data-name="Capa 2"><g id="Layer_1" data-name="Layer 1"><path class="cls-1" d="M920.48,868.24a116.5,116.5,0,0,0-57.38-15,118.45,118.45,0,0,0-23.66,2.39,116.94,116.94,0,0,1-59.71-102c0-.85,0-1.74,0-2.6a163.38,163.38,0,0,0,12.72-50.6c.46-4.85.67-9.75.67-14.71,0-60.38-32.43-113.06-80.73-142,48.3-28.93,80.73-81.61,80.73-142,0-5-.21-9.87-.67-14.71a163.44,163.44,0,0,0-12.72-50.61c0-.86,0-1.75,0-2.6a117,117,0,0,1,59.7-102,117.82,117.82,0,0,0,23.67,2.39,117.1,117.1,0,1,0-97.66-52.5,117.48,117.48,0,0,1-66.75,70.53,165.56,165.56,0,0,0-208.6,57.25,165.66,165.66,0,0,0-208.6-57.25,117.53,117.53,0,0,1-66.76-70.53,117.09,117.09,0,1,0-97.65,52.5,117.89,117.89,0,0,0,23.67-2.39,117,117,0,0,1,59.7,102c0,.85,0,1.74,0,2.6A163.16,163.16,0,0,0,187.7,387q-.69,7.26-.68,14.71c0,60.37,32.44,113.05,80.73,142-48.29,28.93-80.73,81.61-80.73,142q0,7.44.68,14.71A163.1,163.1,0,0,0,200.42,751c0,.86,0,1.75,0,2.6a116.94,116.94,0,0,1-59.71,102,118.45,118.45,0,0,0-23.66-2.39,117.1,117.1,0,1,0,97.65,52.5,117.43,117.43,0,0,1,66.76-70.52A165.58,165.58,0,0,0,490.09,778a165.65,165.65,0,0,0,208.6,57.26,117.48,117.48,0,0,1,66.76,70.52,117.07,117.07,0,1,0,155-37.49ZM490.09,593.42a166.47,166.47,0,0,0-52.64-49.74,166.25,166.25,0,0,0,52.64-49.74,166.14,166.14,0,0,0,52.64,49.74A166.36,166.36,0,0,0,490.09,593.42Z"/></g></g></svg>