<svg xmlns="http://www.w3.org/2000/svg" viewBox="0 0 852.13 852.13"><defs><style>.cls-1{fill:#fff;}</style></defs><g id="Capa_2" data-name="Capa 2"><g id="Layer_1" data-name="Layer 1"><polygon class="cls-1" points="569.54 426.07 594.33 441.56 625.63 426.06 594.34 410.57 569.54 426.07"/><polygon class="cls-1" points="426.07 282.58 370.88 370.88 282.58 426.06 370.88 481.24 426.06 569.54 481.24 481.25 569.54 426.07 481.25 370.88 426.07 282.58"/><polygon class="cls-1" points="426.07 282.58 441.56 257.8 426.06 226.5 410.57 257.79 426.07 282.58"/><polygon class="cls-1" points="282.58 426.06 257.8 410.57 226.5 426.07 257.79 441.56 282.58 426.06"/><path class="cls-1" d="M852.13,426.09,754,362.52l-55.84,27.64C682,267.47,584.65,170.09,462,154L489.6,98.14,426.09,0,362.52,98.15,390.16,154C267.47,170.09,170.09,267.48,154,390.17L98.14,362.52,0,426l98.15,63.57L154,462C170.09,584.65,267.48,682,390.17,698.14L362.52,754,426,852.13,489.61,754,462,698.14C584.66,682,682,584.65,698.14,462L754,489.6Zm-397,258.23-29.05-58.69L397,684.33C276.86,670.9,181.24,575.27,167.8,455.13l58.7-29.06L167.8,397C181.23,276.86,276.86,181.24,397,167.8l29.06,58.7,29.06-58.7C575.26,181.23,670.89,276.86,684.32,397l-58.69,29.06,58.7,29.06C670.9,575.26,575.27,670.89,455.12,684.32Z"/><polygon class="cls-1" points="426.06 569.54 410.57 594.33 426.07 625.63 441.56 594.34 426.06 569.54"/></g></g></svg>