<svg xmlns="http://www.w3.org/2000/svg" viewBox="0 0 498.31 874.94"><defs><style>.cls-1{fill:#fff;}</style></defs><g id="Capa_2" data-name="Capa 2"><g id="Layer_1" data-name="Layer 1"><path class="cls-1" d="M255.7,874.94H242.61c-1.82-25.15-3.63-76.22-5.73-135.36-5-141.27-13.28-374.06-29.33-413.41C156.13,339.43,97.17,376.42,7.7,434.81L0,424.2c80.41-64.74,134.35-110,150.8-147.44,7.56-17.11,7.56-33,0-50.12C134.35,189.15,80.41,143.91,0,79.18L7.7,68.57c87.1,56.85,148.73,95.5,200.36,108.73C230.8,142,236.56,83.72,242.61,0H255.7c6,83.72,11.81,142,34.55,177.3C341.87,164.07,403.5,125.42,490.6,68.57l7.71,10.61c-80.46,64.77-134.43,110-150.85,147.44-7.56,17.11-7.56,33,0,50.12v0c16.42,37.4,70.39,82.66,150.85,147.44l-7.71,10.61c-89.46-58.39-148.42-95.38-199.85-108.64-16,39.35-24.31,272.14-29.32,413.41C259.33,798.72,257.51,849.79,255.7,874.94Zm-42-563.73,2.55,3.58C233.77,339.34,241.7,509,249.15,715.54,256.6,509,264.53,339.34,282,314.79l2.54-3.58,4.28,1c35.36,8.16,73.24,26.91,120.87,55.64-38.12-33.48-63.13-60.42-74.27-85.79h0c-9.15-20.72-9.15-40,0-60.72C346.59,196,371.6,169,409.73,135.52c-47.61,28.72-85.48,47.46-120.88,55.63l-4.28,1L282,188.56c-18.59-26.12-27.17-62.11-32.88-112.16-5.71,50.05-14.28,86-32.87,112.16l-2.55,3.57-4.27-1c-35.4-8.17-73.29-26.92-120.91-55.64,38.11,33.47,63.11,60.42,74.27,85.84,9.14,20.69,9.14,40,0,60.7-11.15,25.4-36.14,52.33-74.24,85.8,47.64-28.74,85.52-47.49,120.89-55.65Z"/></g></g></svg>