<svg xmlns="http://www.w3.org/2000/svg" viewBox="0 0 422.05 868.47"><defs><style>.cls-1{fill:#fff;}</style></defs><g id="Capa_2" data-name="Capa 2"><g id="Layer_1" data-name="Layer 1"><path class="cls-1" d="M422,186.73a8.91,8.91,0,0,0-8.41-7.9q-12.74-.72-24.31-1.54c-67.42-4.66-105.68-11.52-128.93-30.63-.46-.34-.88-.7-1.3-1.06-26.56-22.84-34-64.15-39-137.22a9.07,9.07,0,0,0-2.78-6A9,9,0,0,0,213.3.3c-.07,0-.1,0-.13,0l-.69-.15-.7-.09A6.27,6.27,0,0,0,211,0c-.31,0-.58,0-.88,0A8.93,8.93,0,0,0,202,8.38c-5,73.07-12.49,114.38-39,137.22-.45.39-.94.78-1.42,1.15-23.26,19-61.46,25.88-128.78,30.54q-11.58.83-24.32,1.54A9,9,0,0,0,6.3,196.38c155.7,48.45,181.53,507.41,190,658.21.51,9.1,7.77,13.88,14.7,13.88a14.4,14.4,0,0,0,14.67-13.88c4.26-75.4,12.85-227.84,39.83-367.5S337.9,220.6,415.75,196.38A8.82,8.82,0,0,0,422,186.73ZM169.38,156c25.19-17.12,35.78-45.82,41.65-96,5.86,50.15,16.42,78.85,41.58,96,14.46,11.89,33.48,19.42,59.89,24.62-71.32,11.19-92.22,36.93-101.47,116-9.26-79.06-30.19-104.8-101.47-116C135.93,175.42,155,167.89,169.38,156Zm93.24,286.6c-30.91,137.55-42.76,300.63-49,411.32a2.6,2.6,0,0,1-5.2,0c-6.26-110.69-18.12-273.8-49-411.32-31.51-140.22-77.24-225-136.07-252.54q19.28-1.23,35.81-2.73c59.67,4.36,92.79,11,112.3,30.52,21.53,21.53,27.43,59.55,31.84,131.44a7.76,7.76,0,0,0,15.49,0c4.42-71.89,10.28-109.91,31.82-131.44,10.76-10.77,25.64-17.6,46.85-22.32,17.23-3.84,38.68-6.26,65.44-8.2q16.56,1.5,35.81,2.73C339.87,217.58,294.14,302.38,262.62,442.6Z"/></g></g></svg>