<svg xmlns="http://www.w3.org/2000/svg" viewBox="0 0 1413.62 897.74"><defs><style>.cls-1{fill:#fff;}</style></defs><g id="Capa_2" data-name="Capa 2"><g id="Layer_1" data-name="Layer 1"><path class="cls-1" d="M634.34,638.83c31,60.25,51,142.44,72.47,258.91,21.47-116.47,41.5-198.66,72.47-258.91q-36.27.92-72.47.87T634.34,638.83Z"/><path class="cls-1" d="M824.45,323.52c-4.14-4.28-8.07-8.72-11.87-13.35C760.88,247.51,735.1,153.53,706.81,0,678.52,153.53,652.74,247.51,601,310.17c-3.8,4.63-7.73,9.07-11.87,13.35C254.81,335.61,0,398.45,0,474.07c0,78.52,274.33,143.17,627.26,151.72q39.19.91,79.55,1t79.55-1c352.93-8.55,627.26-73.2,627.26-151.72C1413.62,398.45,1158.81,335.61,824.45,323.52Zm.39,250.27c-38.13,1.69-77.61,2.55-118,2.55s-79.9-.86-118-2.55C319.37,562,116.61,510.57,116.61,448.89S319.37,335.78,588.78,324q-6.81,7.13-14.21,13.65C512,393,416.85,419.66,257.92,448.89c159,29.24,254.07,55.89,316.69,111.3,42.85,2.11,87.16,3.19,132.2,3.19s89.36-1.08,132.2-3.19c62.62-55.41,157.72-82.06,316.65-111.3C996.77,419.66,901.67,393,839.05,337.6c-5-4.36-9.72-8.9-14.21-13.65C1094.21,335.78,1297,387.22,1297,448.89S1094.25,562,824.84,573.79Z"/></g></g></svg>