<svg xmlns="http://www.w3.org/2000/svg" viewBox="0 0 599.18 940.3"><defs><style>.cls-1{fill:#fff;}</style></defs><g id="Capa_2" data-name="Capa 2"><g id="Layer_1" data-name="Layer 1"><path class="cls-1" d="M299.86,940.3h0A20.46,20.46,0,0,1,279.06,920c-1.17-44.71-2.21-94.23-3.22-142.11-3.46-164.53-7.39-351-17.41-374.94-27.69-66.15-85.68-80.5-245.88-90.05a13.35,13.35,0,0,1,0-26.66C251.55,272,272,251.56,286.26,12.56a13.35,13.35,0,0,1,26.66,0c14.25,239,34.71,259.46,273.69,273.71h0a13.35,13.35,0,0,1,0,26.66c-159.33,9.5-217.08,23.58-245.1,88.22-10.21,23.56-14,207-17.44,368.81-1,50.61-2.15,102.94-3.42,150.08A20.46,20.46,0,0,1,299.86,940.3ZM115.28,299.51c89.84,11.27,137.63,33.53,163.37,95,10.82,25.84,14.59,168.4,19.1,383,.68,32.48,1.38,65.72,2.13,97.69.82-34.53,1.57-70.5,2.3-105.65,4.56-217.49,8.12-351.41,19.24-377.06,25.78-59.5,75.09-81.64,163-92.86-130.21-16.52-168.31-54.68-184.82-185C283.11,244.73,245.08,283,115.28,299.51Z"/></g></g></svg>