<svg xmlns="http://www.w3.org/2000/svg" viewBox="0 0 897.74 897.74"><defs><style>.cls-1{fill:#fff;}</style></defs><g id="Capa_2" data-name="Capa 2"><g id="Layer_1" data-name="Layer 1"><path class="cls-1" d="M463.76,897.74H434C412.91,497,400.74,484.83,0,463.76V434C400.74,412.91,412.91,400.74,434,0h29.77c21.07,400.74,33.24,412.91,434,434v29.77C497,484.83,484.83,497,463.76,897.74ZM198.42,448.87c85.1,10.89,143.5,29.36,182.3,68.16s57.26,97.2,68.15,182.29C459.76,614.23,478.23,555.82,517,517s97.2-57.27,182.29-68.16C614.23,438,555.82,419.52,517,380.72s-57.27-97.2-68.16-182.3c-10.89,85.1-29.35,143.5-68.15,182.3S283.52,438,198.42,448.87Z"/></g></g></svg>