<svg xmlns="http://www.w3.org/2000/svg" viewBox="0 0 415.74 868.47"><defs><style>.cls-1{fill:#fff;}</style></defs><g id="Capa_2" data-name="Capa 2"><g id="Layer_1" data-name="Layer 1"><path class="cls-1" d="M412.93,181.37c-168.88-9.8-191.41-24.51-202.08-178.59a3,3,0,0,0-6,0C194.22,156.86,171.69,171.57,2.82,181.37a3,3,0,0,0-.75,5.81c145.05,45.11,182.54,415.58,197,673,.62,11,16.91,11,17.53,0,14.49-257.43,52-627.9,197-673A3,3,0,0,0,412.93,181.37Zm-45.32,8.35C232.3,198,217.77,212.55,209.47,347.86a1.6,1.6,0,0,1-3.19,0C198,212.55,183.45,198,48.14,189.72a1.6,1.6,0,0,1,0-3.19C183.45,178.22,198,163.7,206.28,28.39a1.6,1.6,0,0,1,3.19,0c8.3,135.31,22.83,149.83,158.14,158.14A1.6,1.6,0,0,1,367.61,189.72Z"/></g></g></svg>