<svg xmlns="http://www.w3.org/2000/svg" viewBox="0 0 884.81 884.81"><defs><style>.cls-1{fill:#fff;}</style></defs><g id="Capa_2" data-name="Capa 2"><g id="Layer_1" data-name="Layer 1"><path class="cls-1" d="M831.79,452.59c16.84-3.39,34.47-6.77,53-10.19-18.55-3.41-36.18-6.79-53-10.19C826.46,225.51,659.3,58.35,452.6,53c-3.4-16.84-6.78-34.47-10.2-53-3.41,18.55-6.79,36.18-10.19,53C225.51,58.35,58.35,225.51,53,432.21,36.18,435.61,18.55,439,0,442.4c18.55,3.42,36.18,6.8,53,10.19,5.33,206.71,172.49,373.87,379.19,379.2,3.4,16.84,6.78,34.47,10.19,53,3.42-18.55,6.8-36.18,10.2-53C659.3,826.46,826.46,659.3,831.79,452.59Zm-8.58-22.12C565.89,377.61,507.2,318.92,454.34,61.6,655,67.81,817,229.85,823.21,430.47ZM430.47,61.6c-52.86,257.32-111.55,316-368.87,368.87C67.81,229.85,229.85,67.81,430.47,61.6ZM61.6,454.34c257.32,52.86,316,111.55,368.87,368.87C229.85,817,67.81,655,61.6,454.34ZM454.34,823.21c52.86-257.32,111.55-316,368.87-368.87C817,655,655,817,454.34,823.21Z"/></g></g></svg>