<svg xmlns="http://www.w3.org/2000/svg" viewBox="0 0 595.11 946.77"><defs><style>.cls-1{fill:#fff;}</style></defs><g id="Capa_2" data-name="Capa 2"><g id="Layer_1" data-name="Layer 1"><path class="cls-1" d="M592.77,295.09a2.47,2.47,0,0,1,0,4.94c-161.61,9.63-230.07,23.21-262.37,97.73-14.81,34.18-16.75,328-22.43,539.12-.35,13.19-20,13.18-20.31,0-5.5-210.31-7.85-503-22.14-537.1C233.6,323.48,165.37,309.75,2.32,300a2.47,2.47,0,0,1,0-4.94C255.27,280,280,255.27,295.09,2.33a2.47,2.47,0,0,1,4.93,0C315.1,255.27,339.84,280,592.77,295.09Z"/></g></g></svg>